<svg xmlns="http://www.w3.org/2000/svg"  viewBox="0 0 50 50" width="50px" height="50px"><path d="M 25 2 C 12.309534 2 2 12.309534 2 25 C 2 37.690466 12.309534 48 25 48 C 37.690466 48 48 37.690466 48 25 C 48 22.195323 47.49545 19.505217 46.574219 17.017578 A 1.0001 1.0001 0 0 0 44.914062 16.673828 C 44.072108 17.553813 43.025641 18.227757 41.847656 18.617188 A 1.0001 1.0001 0 0 0 41.207031 19.869141 C 41.720009 21.489319 42 23.210189 42 25 C 42 34.400545 34.400545 42 25 42 C 15.599455 42 8 34.400545 8 25 C 8 15.599455 15.599455 8 25 8 C 27.215485 8 29.324167 8.4359483 31.269531 9.2089844 A 1.0001 1.0001 0 0 0 32.5625 8.6601562 C 33.032762 7.5158217 33.778356 6.5108844 34.716797 5.7304688 A 1.0001 1.0001 0 0 0 34.490234 4.0507812 C 31.597014 2.7379616 28.383151 2 25 2 z M 25 4 C 27.581364 4 30.005357 4.559976 32.287109 5.4121094 C 31.849052 5.9309867 31.482416 6.4965729 31.162109 7.1015625 C 29.224369 6.4308572 27.16903 6 25 6 C 14.518545 6 6 14.518545 6 25 C 6 35.481455 14.518545 44 25 44 C 35.481455 44 44 35.481455 44 25 C 44 23.308796 43.668179 21.707779 43.251953 20.146484 C 43.903826 19.861954 44.514903 19.523679 45.080078 19.107422 C 45.631815 20.98515 46 22.940939 46 25 C 46 36.609534 36.609534 46 25 46 C 13.390466 46 4 36.609534 4 25 C 4 13.390466 13.390466 4 25 4 z M 39.5 6 C 36.474279 6 34 8.4742785 34 11.5 C 34 14.525721 36.474279 17 39.5 17 C 42.525721 17 45 14.525721 45 11.5 C 45 8.4742785 42.525721 6 39.5 6 z M 39.5 8 C 41.444841 8 43 9.5551587 43 11.5 C 43 13.444841 41.444841 15 39.5 15 C 37.555159 15 36 13.444841 36 11.5 C 36 9.5551587 37.555159 8 39.5 8 z M 25 15 C 19.488997 15 15 19.488997 15 25 C 15 30.511003 19.488997 35 25 35 C 30.511003 35 35 30.511003 35 25 C 35 19.488997 30.511003 15 25 15 z M 25 17 C 29.430123 17 33 20.569877 33 25 C 33 29.430123 29.430123 33 25 33 C 20.569877 33 17 29.430123 17 25 C 17 20.569877 20.569877 17 25 17 z"/></svg>